# xmcd CD database file
#
# Track frame offsets:
#	150
#	31495
#	67289
#	100865
#	133210
#	170795
#	191176
#	220315
#	251630
#
# Disc length: 3855 seconds
#
# Revision: 0
# Processed by: cddbd v1.5.2PL0 Copyright (c) Steve Scherf et al.
# Submitted via: CDex 1.51
#
DISCID=940f0d09
DTITLE=Ulf Meyer and Martin Wind  - At Orpheus Theatre - Live 2012
DYEAR=2012
DGENRE=Jazz
TTITLE0=The Old Country (Nat Adderley)
TTITLE1=Gandhi (Meyer)
TTITLE2=Rainy River (Wind)
TTITLE3=Don't Know Why (Jesse Harris)
TTITLE4=Just Squeeze me (Ellington)
TTITLE5=Little Anna (Niels-Henning Ørsted-Pederson)
TTITLE6=Fragile (Sting)
TTITLE7=Blues in the Closet (Oscar Pettiford)
TTITLE8=My Funny Valentine (Richard Rodgers) 
EXTD=YEAR: 2012
EXTT0=
EXTT1=
EXTT2=
EXTT3=
EXTT4=
EXTT5=
EXTT6=
EXTT7=
EXTT8=
PLAYORDER=
